<?xml version="1.0" encoding="UTF-8" standalone="no"?>
<!DOCTYPE svg PUBLIC "-//W3C//DTD SVG 1.1//EN" "http://www.w3.org/Graphics/SVG/1.1/DTD/svg11.dtd">
<svg width="100%" height="100%" viewBox="0 0 834 216" version="1.1" xmlns="http://www.w3.org/2000/svg" xmlns:xlink="http://www.w3.org/1999/xlink" xml:space="preserve" xmlns:serif="http://www.serif.com/" style="fill-rule:evenodd;clip-rule:evenodd;stroke-linejoin:round;stroke-miterlimit:2;">
    <g transform="matrix(1,0,0,1,-332.99,-12122.4)">
        <g transform="matrix(0.751503,0,0,0.667722,-1223.45,11808)">
            <g transform="matrix(9.08094,0,0,10.2204,12601.5,-7391.76)">
                <g>
                    <g>
                        <g transform="matrix(12,0,0,12,-1124.59,789.306)">
                            <path d="M0.312,0.008C0.262,0.008 0.214,0 0.169,-0.015C0.123,-0.029 0.086,-0.05 0.059,-0.075C0.049,-0.084 0.044,-0.096 0.044,-0.11C0.044,-0.119 0.047,-0.128 0.052,-0.135C0.057,-0.141 0.064,-0.145 0.071,-0.145C0.08,-0.145 0.089,-0.141 0.099,-0.134C0.161,-0.086 0.232,-0.062 0.311,-0.062C0.368,-0.062 0.412,-0.073 0.443,-0.095C0.474,-0.117 0.489,-0.148 0.489,-0.189C0.489,-0.212 0.482,-0.231 0.467,-0.246C0.452,-0.26 0.433,-0.271 0.409,-0.28C0.385,-0.289 0.353,-0.298 0.312,-0.307C0.257,-0.32 0.213,-0.333 0.178,-0.347C0.142,-0.361 0.114,-0.381 0.093,-0.407C0.071,-0.433 0.06,-0.467 0.06,-0.509C0.06,-0.549 0.071,-0.585 0.093,-0.616C0.114,-0.647 0.145,-0.671 0.184,-0.688C0.223,-0.705 0.267,-0.713 0.317,-0.713C0.364,-0.713 0.407,-0.706 0.448,-0.692C0.488,-0.677 0.522,-0.657 0.549,-0.63C0.56,-0.619 0.565,-0.608 0.565,-0.595C0.565,-0.586 0.562,-0.578 0.557,-0.571C0.552,-0.564 0.545,-0.56 0.538,-0.56C0.531,-0.56 0.521,-0.564 0.509,-0.571C0.476,-0.598 0.446,-0.616 0.418,-0.627C0.39,-0.638 0.356,-0.643 0.317,-0.643C0.262,-0.643 0.219,-0.631 0.188,-0.609C0.157,-0.586 0.142,-0.553 0.142,-0.512C0.142,-0.477 0.156,-0.45 0.183,-0.433C0.21,-0.415 0.251,-0.399 0.307,-0.386C0.368,-0.371 0.415,-0.358 0.45,-0.345C0.485,-0.333 0.514,-0.315 0.537,-0.29C0.56,-0.265 0.571,-0.232 0.571,-0.191C0.571,-0.152 0.56,-0.117 0.539,-0.087C0.517,-0.057 0.486,-0.034 0.447,-0.017C0.408,0 0.363,0.008 0.312,0.008Z" style="fill:rgb(68,142,189);fill-rule:nonzero;"/>
                        </g>
                        <g transform="matrix(12,0,0,12,-1117.19,789.306)">
                            <path d="M0.116,0.005C0.104,0.005 0.094,0.001 0.086,-0.006C0.079,-0.013 0.075,-0.022 0.075,-0.035L0.075,-0.457C0.075,-0.47 0.079,-0.48 0.086,-0.487C0.094,-0.494 0.104,-0.497 0.116,-0.497C0.128,-0.497 0.138,-0.494 0.145,-0.487C0.152,-0.48 0.156,-0.47 0.156,-0.457L0.156,-0.035C0.156,-0.022 0.152,-0.012 0.145,-0.005C0.138,0.002 0.128,0.005 0.116,0.005ZM0.116,-0.602C0.1,-0.602 0.087,-0.607 0.077,-0.616C0.067,-0.625 0.062,-0.638 0.062,-0.653C0.062,-0.668 0.067,-0.68 0.077,-0.689C0.087,-0.698 0.1,-0.703 0.116,-0.703C0.132,-0.703 0.145,-0.698 0.155,-0.689C0.165,-0.68 0.17,-0.668 0.17,-0.653C0.17,-0.638 0.165,-0.625 0.155,-0.616C0.145,-0.607 0.132,-0.602 0.116,-0.602Z" style="fill:rgb(68,142,189);fill-rule:nonzero;"/>
                        </g>
                        <g transform="matrix(12,0,0,12,-1114.41,789.306)">
                            <path d="M0.239,0.007C0.208,0.007 0.179,0.003 0.152,-0.004C0.124,-0.011 0.099,-0.022 0.078,-0.035C0.066,-0.043 0.058,-0.051 0.053,-0.058C0.048,-0.065 0.045,-0.073 0.045,-0.083C0.045,-0.092 0.048,-0.099 0.053,-0.105C0.058,-0.11 0.064,-0.113 0.072,-0.113C0.08,-0.113 0.092,-0.108 0.107,-0.098C0.127,-0.086 0.147,-0.077 0.167,-0.07C0.186,-0.063 0.211,-0.059 0.24,-0.059C0.276,-0.059 0.304,-0.065 0.324,-0.078C0.344,-0.091 0.354,-0.109 0.354,-0.133C0.354,-0.148 0.35,-0.16 0.343,-0.169C0.336,-0.178 0.323,-0.186 0.305,-0.193C0.287,-0.2 0.261,-0.207 0.226,-0.214C0.167,-0.227 0.125,-0.244 0.1,-0.265C0.075,-0.286 0.062,-0.315 0.062,-0.352C0.062,-0.381 0.07,-0.406 0.086,-0.428C0.102,-0.45 0.124,-0.467 0.153,-0.48C0.181,-0.493 0.213,-0.499 0.249,-0.499C0.275,-0.499 0.3,-0.496 0.325,-0.489C0.349,-0.482 0.37,-0.472 0.389,-0.459C0.412,-0.443 0.423,-0.426 0.423,-0.409C0.423,-0.4 0.42,-0.393 0.415,-0.387C0.41,-0.381 0.403,-0.378 0.396,-0.378C0.388,-0.378 0.376,-0.384 0.36,-0.395C0.341,-0.407 0.324,-0.416 0.307,-0.423C0.29,-0.43 0.27,-0.433 0.245,-0.433C0.214,-0.433 0.189,-0.426 0.17,-0.412C0.151,-0.398 0.141,-0.379 0.141,-0.356C0.141,-0.341 0.145,-0.33 0.152,-0.321C0.159,-0.312 0.17,-0.304 0.187,-0.297C0.203,-0.29 0.226,-0.283 0.257,-0.276C0.302,-0.266 0.338,-0.255 0.363,-0.243C0.388,-0.231 0.405,-0.216 0.416,-0.199C0.427,-0.182 0.432,-0.16 0.432,-0.133C0.432,-0.091 0.414,-0.057 0.379,-0.032C0.344,-0.006 0.297,0.007 0.239,0.007Z" style="fill:rgb(68,142,189);fill-rule:nonzero;"/>
                        </g>
                        <g transform="matrix(12,0,0,12,-1108.71,789.306)">
                            <path d="M0.3,-0.059C0.323,-0.057 0.335,-0.046 0.335,-0.027C0.335,-0.016 0.331,-0.007 0.323,-0.002C0.314,0.004 0.302,0.006 0.285,0.005L0.258,0.003C0.205,-0.001 0.165,-0.017 0.14,-0.045C0.115,-0.073 0.102,-0.115 0.102,-0.172L0.102,-0.423L0.035,-0.423C0.024,-0.423 0.015,-0.426 0.009,-0.432C0.002,-0.437 -0.001,-0.445 -0.001,-0.454C-0.001,-0.464 0.002,-0.472 0.009,-0.478C0.015,-0.484 0.024,-0.487 0.035,-0.487L0.102,-0.487L0.102,-0.6C0.102,-0.613 0.106,-0.623 0.113,-0.629C0.12,-0.636 0.13,-0.64 0.143,-0.64C0.155,-0.64 0.165,-0.636 0.172,-0.629C0.179,-0.623 0.183,-0.613 0.183,-0.6L0.183,-0.487L0.294,-0.487C0.305,-0.487 0.313,-0.484 0.32,-0.478C0.326,-0.472 0.329,-0.464 0.329,-0.454C0.329,-0.445 0.326,-0.437 0.32,-0.432C0.313,-0.426 0.305,-0.423 0.294,-0.423L0.183,-0.423L0.183,-0.168C0.183,-0.131 0.191,-0.105 0.205,-0.089C0.221,-0.072 0.243,-0.063 0.273,-0.061L0.3,-0.059Z" style="fill:rgb(68,142,189);fill-rule:nonzero;"/>
                        </g>
                        <g transform="matrix(12,0,0,12,-1104.63,789.306)">
                            <path d="M0.452,-0.113C0.459,-0.113 0.466,-0.11 0.471,-0.104C0.476,-0.098 0.479,-0.09 0.479,-0.081C0.479,-0.064 0.467,-0.049 0.444,-0.035C0.42,-0.021 0.395,-0.011 0.368,-0.004C0.341,0.003 0.315,0.007 0.29,0.007C0.215,0.007 0.155,-0.015 0.112,-0.06C0.068,-0.105 0.046,-0.166 0.046,-0.245C0.046,-0.295 0.056,-0.339 0.075,-0.378C0.094,-0.416 0.122,-0.446 0.157,-0.467C0.192,-0.488 0.231,-0.499 0.276,-0.499C0.339,-0.499 0.39,-0.478 0.427,-0.437C0.464,-0.396 0.483,-0.34 0.483,-0.269C0.483,-0.256 0.48,-0.246 0.475,-0.24C0.47,-0.234 0.461,-0.231 0.449,-0.231L0.127,-0.231C0.133,-0.116 0.187,-0.059 0.29,-0.059C0.316,-0.059 0.338,-0.063 0.357,-0.07C0.376,-0.077 0.396,-0.086 0.417,-0.098C0.434,-0.108 0.446,-0.113 0.452,-0.113ZM0.277,-0.436C0.234,-0.436 0.2,-0.423 0.174,-0.396C0.149,-0.369 0.134,-0.332 0.129,-0.283L0.412,-0.283C0.411,-0.332 0.398,-0.37 0.375,-0.397C0.352,-0.423 0.319,-0.436 0.277,-0.436Z" style="fill:rgb(68,142,189);fill-rule:nonzero;"/>
                        </g>
                        <g transform="matrix(12,0,0,12,-1098.3,789.306)">
                            <path d="M0.617,-0.499C0.725,-0.499 0.779,-0.435 0.779,-0.306L0.779,-0.035C0.779,-0.022 0.775,-0.013 0.768,-0.006C0.761,0.001 0.751,0.005 0.739,0.005C0.727,0.005 0.717,0.001 0.71,-0.006C0.702,-0.013 0.698,-0.022 0.698,-0.035L0.698,-0.304C0.698,-0.349 0.69,-0.381 0.674,-0.401C0.658,-0.421 0.633,-0.431 0.599,-0.431C0.558,-0.431 0.526,-0.417 0.503,-0.39C0.48,-0.363 0.468,-0.326 0.468,-0.279L0.468,-0.035C0.468,-0.022 0.464,-0.013 0.457,-0.006C0.449,0.001 0.439,0.005 0.427,0.005C0.415,0.005 0.405,0.001 0.398,-0.006C0.391,-0.013 0.387,-0.022 0.387,-0.035L0.387,-0.304C0.387,-0.349 0.379,-0.381 0.363,-0.401C0.347,-0.421 0.322,-0.431 0.287,-0.431C0.247,-0.431 0.215,-0.417 0.192,-0.39C0.168,-0.363 0.156,-0.326 0.156,-0.279L0.156,-0.035C0.156,-0.022 0.152,-0.013 0.145,-0.006C0.138,0.001 0.128,0.005 0.116,0.005C0.104,0.005 0.094,0.001 0.086,-0.006C0.079,-0.013 0.075,-0.022 0.075,-0.035L0.075,-0.457C0.075,-0.469 0.079,-0.479 0.086,-0.486C0.094,-0.493 0.104,-0.497 0.116,-0.497C0.127,-0.497 0.137,-0.494 0.144,-0.487C0.151,-0.48 0.155,-0.47 0.155,-0.458L0.155,-0.41C0.17,-0.439 0.19,-0.461 0.216,-0.476C0.242,-0.491 0.272,-0.499 0.306,-0.499C0.382,-0.499 0.432,-0.467 0.455,-0.403C0.469,-0.432 0.49,-0.456 0.519,-0.473C0.548,-0.49 0.58,-0.499 0.617,-0.499Z" style="fill:rgb(68,142,189);fill-rule:nonzero;"/>
                        </g>
                        <g transform="matrix(12,0,0,12,-1088.08,789.306)">
                            <path d="M0.116,0.005C0.104,0.005 0.094,0.001 0.086,-0.006C0.079,-0.013 0.075,-0.022 0.075,-0.035L0.075,-0.457C0.075,-0.47 0.079,-0.48 0.086,-0.487C0.094,-0.494 0.104,-0.497 0.116,-0.497C0.128,-0.497 0.138,-0.494 0.145,-0.487C0.152,-0.48 0.156,-0.47 0.156,-0.457L0.156,-0.035C0.156,-0.022 0.152,-0.012 0.145,-0.005C0.138,0.002 0.128,0.005 0.116,0.005ZM0.116,-0.602C0.1,-0.602 0.087,-0.607 0.077,-0.616C0.067,-0.625 0.062,-0.638 0.062,-0.653C0.062,-0.668 0.067,-0.68 0.077,-0.689C0.087,-0.698 0.1,-0.703 0.116,-0.703C0.132,-0.703 0.145,-0.698 0.155,-0.689C0.165,-0.68 0.17,-0.668 0.17,-0.653C0.17,-0.638 0.165,-0.625 0.155,-0.616C0.145,-0.607 0.132,-0.602 0.116,-0.602Z" style="fill:rgb(68,142,189);fill-rule:nonzero;"/>
                        </g>
                        <g transform="matrix(12,0,0,12,-1085.29,789.306)">
                            <path d="M0.433,-0.064C0.444,-0.064 0.453,-0.061 0.459,-0.056C0.465,-0.05 0.468,-0.042 0.468,-0.032C0.468,-0.022 0.465,-0.014 0.459,-0.009C0.453,-0.003 0.444,0 0.433,0L0.083,0C0.072,0 0.062,-0.004 0.055,-0.011C0.048,-0.018 0.044,-0.026 0.044,-0.036C0.044,-0.047 0.048,-0.057 0.056,-0.067L0.352,-0.423L0.078,-0.423C0.067,-0.423 0.058,-0.426 0.051,-0.432C0.045,-0.437 0.042,-0.445 0.042,-0.454C0.042,-0.464 0.045,-0.472 0.051,-0.478C0.058,-0.484 0.067,-0.487 0.078,-0.487L0.417,-0.487C0.429,-0.487 0.439,-0.484 0.446,-0.476C0.453,-0.469 0.457,-0.461 0.457,-0.451C0.457,-0.44 0.453,-0.43 0.445,-0.42L0.148,-0.064L0.433,-0.064Z" style="fill:rgb(68,142,189);fill-rule:nonzero;"/>
                        </g>
                        <g transform="matrix(12,0,0,12,-1079.39,789.306)">
                            <path d="M0.452,-0.113C0.459,-0.113 0.466,-0.11 0.471,-0.104C0.476,-0.098 0.479,-0.09 0.479,-0.081C0.479,-0.064 0.467,-0.049 0.444,-0.035C0.42,-0.021 0.395,-0.011 0.368,-0.004C0.341,0.003 0.315,0.007 0.29,0.007C0.215,0.007 0.155,-0.015 0.112,-0.06C0.068,-0.105 0.046,-0.166 0.046,-0.245C0.046,-0.295 0.056,-0.339 0.075,-0.378C0.094,-0.416 0.122,-0.446 0.157,-0.467C0.192,-0.488 0.231,-0.499 0.276,-0.499C0.339,-0.499 0.39,-0.478 0.427,-0.437C0.464,-0.396 0.483,-0.34 0.483,-0.269C0.483,-0.256 0.48,-0.246 0.475,-0.24C0.47,-0.234 0.461,-0.231 0.449,-0.231L0.127,-0.231C0.133,-0.116 0.187,-0.059 0.29,-0.059C0.316,-0.059 0.338,-0.063 0.357,-0.07C0.376,-0.077 0.396,-0.086 0.417,-0.098C0.434,-0.108 0.446,-0.113 0.452,-0.113ZM0.277,-0.436C0.234,-0.436 0.2,-0.423 0.174,-0.396C0.149,-0.369 0.134,-0.332 0.129,-0.283L0.412,-0.283C0.411,-0.332 0.398,-0.37 0.375,-0.397C0.352,-0.423 0.319,-0.436 0.277,-0.436Z" style="fill:rgb(68,142,189);fill-rule:nonzero;"/>
                        </g>
                        <g transform="matrix(12,0,0,12,-1073.07,789.306)">
                            <path d="M0.138,0C0.119,0 0.103,-0.005 0.093,-0.016C0.082,-0.027 0.076,-0.042 0.076,-0.061L0.076,-0.644C0.076,-0.663 0.082,-0.678 0.093,-0.689C0.103,-0.7 0.119,-0.705 0.138,-0.705L0.336,-0.705C0.451,-0.705 0.541,-0.674 0.605,-0.613C0.668,-0.551 0.7,-0.464 0.7,-0.353C0.7,-0.241 0.668,-0.154 0.605,-0.093C0.541,-0.031 0.451,0 0.336,0L0.138,0ZM0.328,-0.105C0.49,-0.105 0.571,-0.188 0.571,-0.353C0.571,-0.518 0.49,-0.6 0.328,-0.6L0.205,-0.6L0.205,-0.105L0.328,-0.105Z" style="fill:rgb(68,142,189);fill-rule:nonzero;"/>
                        </g>
                        <g transform="matrix(12,0,0,12,-1064.02,789.306)">
                            <path d="M0.452,-0.134C0.463,-0.134 0.472,-0.13 0.48,-0.121C0.487,-0.112 0.49,-0.101 0.49,-0.086C0.49,-0.065 0.478,-0.048 0.453,-0.034C0.43,-0.021 0.405,-0.011 0.376,-0.004C0.347,0.004 0.32,0.008 0.294,0.008C0.215,0.008 0.153,-0.015 0.107,-0.06C0.061,-0.105 0.038,-0.167 0.038,-0.246C0.038,-0.296 0.048,-0.34 0.068,-0.379C0.088,-0.418 0.116,-0.448 0.153,-0.469C0.189,-0.49 0.23,-0.501 0.276,-0.501C0.32,-0.501 0.358,-0.491 0.391,-0.472C0.424,-0.453 0.449,-0.425 0.467,-0.39C0.485,-0.355 0.494,-0.313 0.494,-0.265C0.494,-0.236 0.481,-0.222 0.456,-0.222L0.161,-0.222C0.165,-0.176 0.178,-0.142 0.2,-0.121C0.222,-0.099 0.254,-0.088 0.296,-0.088C0.317,-0.088 0.336,-0.091 0.353,-0.096C0.369,-0.101 0.387,-0.109 0.408,-0.118C0.428,-0.129 0.443,-0.134 0.452,-0.134ZM0.279,-0.413C0.245,-0.413 0.218,-0.402 0.198,-0.381C0.177,-0.36 0.165,-0.329 0.161,-0.289L0.387,-0.289C0.386,-0.33 0.376,-0.361 0.357,-0.382C0.338,-0.403 0.312,-0.413 0.279,-0.413Z" style="fill:rgb(68,142,189);fill-rule:nonzero;"/>
                        </g>
                        <g transform="matrix(12,0,0,12,-1057.65,789.306)">
                            <path d="M0.349,-0.501C0.408,-0.501 0.451,-0.484 0.48,-0.451C0.509,-0.418 0.523,-0.367 0.523,-0.3L0.523,-0.054C0.523,-0.035 0.518,-0.021 0.506,-0.01C0.496,0.001 0.48,0.006 0.461,0.006C0.442,0.006 0.426,0.001 0.415,-0.01C0.404,-0.021 0.398,-0.035 0.398,-0.054L0.398,-0.293C0.398,-0.331 0.391,-0.359 0.377,-0.376C0.362,-0.393 0.34,-0.402 0.309,-0.402C0.273,-0.402 0.244,-0.391 0.223,-0.368C0.201,-0.345 0.19,-0.315 0.19,-0.277L0.19,-0.054C0.19,-0.035 0.184,-0.021 0.173,-0.01C0.162,0.001 0.146,0.006 0.127,0.006C0.108,0.006 0.093,0.001 0.082,-0.01C0.07,-0.021 0.065,-0.035 0.065,-0.054L0.065,-0.441C0.065,-0.458 0.071,-0.472 0.082,-0.483C0.093,-0.494 0.109,-0.499 0.128,-0.499C0.145,-0.499 0.16,-0.494 0.171,-0.484C0.182,-0.473 0.187,-0.46 0.187,-0.443L0.187,-0.416C0.204,-0.443 0.226,-0.464 0.254,-0.479C0.282,-0.494 0.314,-0.501 0.349,-0.501Z" style="fill:rgb(68,142,189);fill-rule:nonzero;"/>
                        </g>
                        <g transform="matrix(12,0,0,12,-1050.63,789.306)">
                            <path d="M0.319,-0.087C0.352,-0.085 0.369,-0.07 0.369,-0.042C0.369,-0.026 0.363,-0.014 0.349,-0.006C0.337,0.003 0.318,0.006 0.294,0.005L0.267,0.003C0.155,-0.005 0.099,-0.065 0.099,-0.177L0.099,-0.395L0.049,-0.395C0.031,-0.395 0.017,-0.399 0.008,-0.407C-0.002,-0.415 -0.007,-0.427 -0.007,-0.442C-0.007,-0.457 -0.002,-0.469 0.008,-0.477C0.017,-0.485 0.031,-0.489 0.049,-0.489L0.099,-0.489L0.099,-0.581C0.099,-0.599 0.105,-0.613 0.116,-0.624C0.127,-0.635 0.143,-0.64 0.162,-0.64C0.181,-0.64 0.196,-0.635 0.207,-0.624C0.218,-0.613 0.224,-0.599 0.224,-0.581L0.224,-0.489L0.309,-0.489C0.327,-0.489 0.341,-0.485 0.35,-0.477C0.36,-0.469 0.365,-0.457 0.365,-0.442C0.365,-0.427 0.36,-0.415 0.35,-0.407C0.341,-0.399 0.327,-0.395 0.309,-0.395L0.224,-0.395L0.224,-0.168C0.224,-0.119 0.247,-0.092 0.292,-0.089L0.319,-0.087Z" style="fill:rgb(68,142,189);fill-rule:nonzero;"/>
                        </g>
                        <g transform="matrix(12,0,0,12,-1046.2,789.306)">
                            <path d="M0.277,-0.501C0.345,-0.501 0.396,-0.484 0.429,-0.451C0.462,-0.417 0.478,-0.366 0.478,-0.297L0.478,-0.053C0.478,-0.035 0.473,-0.021 0.462,-0.011C0.451,0 0.437,0.005 0.418,0.005C0.401,0.005 0.387,0 0.376,-0.011C0.365,-0.022 0.359,-0.036 0.359,-0.053L0.359,-0.075C0.348,-0.049 0.33,-0.029 0.306,-0.014C0.281,0.001 0.253,0.008 0.221,0.008C0.188,0.008 0.159,0.001 0.132,-0.012C0.105,-0.025 0.084,-0.044 0.069,-0.067C0.054,-0.09 0.046,-0.116 0.046,-0.145C0.046,-0.181 0.055,-0.209 0.074,-0.23C0.092,-0.251 0.122,-0.266 0.163,-0.275C0.204,-0.284 0.261,-0.289 0.334,-0.289L0.359,-0.289L0.359,-0.312C0.359,-0.345 0.352,-0.369 0.338,-0.384C0.324,-0.399 0.301,-0.406 0.27,-0.406C0.251,-0.406 0.231,-0.403 0.211,-0.398C0.191,-0.392 0.167,-0.384 0.14,-0.373C0.123,-0.364 0.11,-0.36 0.102,-0.36C0.09,-0.36 0.08,-0.364 0.073,-0.373C0.065,-0.382 0.061,-0.393 0.061,-0.407C0.061,-0.418 0.064,-0.428 0.07,-0.437C0.075,-0.445 0.085,-0.453 0.098,-0.46C0.121,-0.473 0.149,-0.483 0.182,-0.49C0.214,-0.497 0.246,-0.501 0.277,-0.501ZM0.246,-0.082C0.279,-0.082 0.307,-0.093 0.328,-0.116C0.348,-0.138 0.359,-0.167 0.359,-0.202L0.359,-0.223L0.341,-0.223C0.296,-0.223 0.262,-0.221 0.237,-0.217C0.212,-0.213 0.195,-0.206 0.184,-0.196C0.173,-0.186 0.168,-0.172 0.168,-0.155C0.168,-0.134 0.175,-0.116 0.191,-0.102C0.205,-0.089 0.224,-0.082 0.246,-0.082Z" style="fill:rgb(68,142,189);fill-rule:nonzero;"/>
                        </g>
                        <g transform="matrix(12,0,0,12,-1039.72,789.306)">
                            <path d="M0.127,0.006C0.109,0.006 0.094,0.001 0.083,-0.01C0.071,-0.02 0.065,-0.035 0.065,-0.054L0.065,-0.651C0.065,-0.67 0.071,-0.685 0.083,-0.695C0.094,-0.705 0.109,-0.71 0.127,-0.71C0.145,-0.71 0.16,-0.705 0.172,-0.695C0.184,-0.685 0.19,-0.67 0.19,-0.651L0.19,-0.054C0.19,-0.035 0.184,-0.02 0.172,-0.01C0.16,0.001 0.145,0.006 0.127,0.006Z" style="fill:rgb(68,142,189);fill-rule:nonzero;"/>
                        </g>
                    </g>
                </g>
            </g>
            <g transform="matrix(1.16718,0,0,1.31363,1930.83,125.572)">
                <g transform="matrix(1,0,0,1.15195,-693.807,-71.6198)">
                    <path d="M1036.95,358.931L1036.95,483.335C1036.95,494.247 1028.01,503.105 1016.99,503.105L833.938,503.105C822.924,503.105 813.982,494.247 813.982,483.335L813.982,358.931L1036.95,358.931Z" style="fill:white;"/>
                </g>
                <g transform="matrix(1,0,0,0.73023,-691.166,75.4666)">
                    <path d="M811.341,355.176L811.341,301.33C811.341,290.316 820.283,281.374 831.297,281.374L1014.35,281.374C1025.36,281.374 1034.31,290.316 1034.31,301.33L1034.31,355.176L811.341,355.176Z" style="fill:rgb(40,85,112);"/>
                </g>
                <g transform="matrix(1,0,0,0.73023,-691.166,75.4666)">
                    <path d="M811.341,355.176L811.341,301.33C811.341,290.316 820.283,281.374 831.297,281.374L1014.35,281.374C1025.36,281.374 1034.31,290.316 1034.31,301.33L1034.31,355.176L811.341,355.176Z" style="fill:rgb(68,142,189);"/>
                </g>
                <g transform="matrix(1.12596,0,0,1.12596,-858.879,-32.7637)">
                    <g>
                        <g transform="matrix(1.1236,0,0,1.1236,-45.5718,-39.4595)">
                            <g>
                                <circle cx="840.078" cy="304.422" r="8.84" style="fill:white;"/>
                            </g>
                        </g>
                        <g transform="matrix(1.1236,0,0,1.1236,24.625,-39.4595)">
                            <g>
                                <circle cx="840.078" cy="304.422" r="8.84" style="fill:white;"/>
                            </g>
                        </g>
                        <g transform="matrix(1,0,0,1,188.999,-2.84082)">
                            <g>
                                <g transform="matrix(1.1236,0,0,1.1236,-94.1775,-36.6187)">
                                    <circle cx="840.078" cy="304.422" r="8.84" style="fill:white;"/>
                                </g>
                                <g transform="matrix(1.04227,0,0,1,-27.1672,0.504293)">
                                    <path d="M847.304,271.137C847.304,267.705 844.631,264.919 841.339,264.919C838.046,264.919 835.374,267.705 835.374,271.137L835.374,303.954C835.374,307.385 838.046,310.171 841.339,310.171C844.631,310.171 847.304,307.385 847.304,303.954L847.304,271.137Z" style="fill:rgb(171,169,174);"/>
                                </g>
                                <g transform="matrix(1.04227,0,0,1,-27.1672,0.504293)">
                                    <path d="M847.304,271.137C847.304,267.705 844.631,264.919 841.339,264.919C838.046,264.919 835.374,267.705 835.374,271.137L835.374,303.954C835.374,307.385 838.046,310.171 841.339,310.171C844.631,310.171 847.304,307.385 847.304,303.954L847.304,271.137Z" style="fill:rgb(40,85,112);"/>
                                </g>
                            </g>
                        </g>
                    </g>
                </g>
                <g transform="matrix(1.17356,0,0,1.12596,-834.74,-35.3946)">
                    <path d="M847.304,271.137C847.304,267.705 844.631,264.919 841.339,264.919C838.046,264.919 835.374,267.705 835.374,271.137L835.374,303.954C835.374,307.385 838.046,310.171 841.339,310.171C844.631,310.171 847.304,307.385 847.304,303.954L847.304,271.137Z" style="fill:rgb(171,169,174);"/>
                </g>
                <g transform="matrix(1.17356,0,0,1.12596,-834.74,-35.3946)">
                    <path d="M847.304,271.137C847.304,267.705 844.631,264.919 841.339,264.919C838.046,264.919 835.374,267.705 835.374,271.137L835.374,303.954C835.374,307.385 838.046,310.171 841.339,310.171C844.631,310.171 847.304,307.385 847.304,303.954L847.304,271.137Z" style="fill:rgb(40,85,112);"/>
                </g>
                <g transform="matrix(1.17356,0,0,1.12596,-755.701,-35.3946)">
                    <path d="M847.304,271.137C847.304,267.705 844.631,264.919 841.339,264.919C838.046,264.919 835.374,267.705 835.374,271.137L835.374,303.954C835.374,307.385 838.046,310.171 841.339,310.171C844.631,310.171 847.304,307.385 847.304,303.954L847.304,271.137Z" style="fill:rgb(40,85,112);"/>
                </g>
                <g transform="matrix(2.88763,0,0,2.88763,-1657.51,-477.661)">
                    <path d="M660.057,298.092C660.09,298.113 660.133,298.106 660.157,298.076C660.181,298.046 660.179,298.002 660.152,297.974C659.032,296.839 657.87,295.914 656.682,295.12C656.516,295.01 656.438,294.805 656.49,294.612C656.543,294.42 656.713,294.282 656.912,294.271C657.933,294.137 659.499,293.816 661.591,293.074C665.613,291.647 671.97,294.241 670.153,301.117C668.337,307.993 667.559,309.42 667.17,313.572C666.78,317.723 666.044,328.14 664.356,330.744C663.369,332.267 660.157,335.184 658.218,329.789C655.903,323.349 657.303,318.927 654.99,318.309C653.008,317.78 651.978,320.153 651.779,322.353C651.42,326.317 651.055,329.274 650.304,331.086C649.831,332.229 649.211,333.049 647.274,333.227C646.168,333.328 644.175,331.898 643.558,330.178C642.654,327.661 642.414,321.658 642.154,318.804C641.895,315.95 641.222,312.015 640.314,310.199C639.406,308.382 635.877,297.857 639.795,293.852C644.052,289.501 651.644,293.02 660.057,298.092Z" style="fill:rgb(86,181,239);"/>
                </g>
                <g transform="matrix(1.24996,0,0,2.2985,-119.986,-413.684)">
                    <g transform="matrix(-1,-6.65981e-17,1.22465e-16,-0.543814,420.712,782.294)">
                        <path d="M206.714,737.486C202.847,737.486 199.139,735.95 196.405,733.216C193.672,730.482 192.136,726.774 192.136,722.908L192.136,701.045L228.577,737.486L206.714,737.486Z" style="fill:rgb(244,235,236);"/>
                    </g>
                    <g transform="matrix(1,1.33196e-16,-2.44929e-16,0.543814,7.67386e-12,-3.86535e-12)">
                        <path d="M206.714,737.486C202.847,737.486 199.139,735.95 196.405,733.216C193.672,730.482 192.136,726.774 192.136,722.908L192.136,701.045L228.577,737.486L206.714,737.486Z" style="fill:rgb(171,169,174);"/>
                    </g>
                </g>
            </g>
        </g>
    </g>
</svg>
