<svg width="121" height="125" viewBox="0 0 121 125" xmlns="http://www.w3.org/2000/svg" xmlns:xlink="http://www.w3.org/1999/xlink"><title>Group 33</title><defs><path id="a" d="M60 124.517h60V0H0v124.517z"/><path id="c" d="M120.509 53.592V7.567H72v46.025h48.509z"/></defs><g fill="none" fill-rule="evenodd"><g transform="translate(0 .5)"><mask id="b" fill="#fff"><use xlink:href="#a"/></mask><path d="M71.232 4.585a16.049 16.049 0 0 0 13.58 4.413c8.643-1.278 16.72 4.59 18.174 13.204a16.05 16.05 0 0 0 8.394 11.552c7.743 4.046 10.828 13.54 6.94 21.364a16.051 16.051 0 0 0 0 14.28c3.888 7.825.803 17.32-6.94 21.365a16.049 16.049 0 0 0-8.394 11.552c-1.454 8.615-9.531 14.483-18.173 13.204a16.049 16.049 0 0 0-13.581 4.412c-6.24 6.115-16.224 6.115-22.464 0a16.047 16.047 0 0 0-13.58-4.412c-8.642 1.278-16.72-4.59-18.174-13.204A16.05 16.05 0 0 0 8.62 90.763C.878 86.716-2.207 77.222 1.679 69.398a16.051 16.051 0 0 0 0-14.28C-2.207 47.294.878 37.8 8.62 33.754a16.05 16.05 0 0 0 8.393-11.551V22.2c1.455-8.613 9.532-14.482 18.174-13.203a16.047 16.047 0 0 0 13.58-4.412c6.24-6.115 16.224-6.115 22.464 0" fill="#F5ECD5" mask="url(#b)"/><path d="M52.11 57.688c-.77-.842-1.681-1.834-2.713-2.96-.628-.704-1.35-1.42-2.02-2.294a7.817 7.817 0 0 1-.9-1.44c-.25-.535-.428-1.158-.337-1.822.096-.692.587-1.253 1.122-1.593.27-.18.573-.315.852-.435.271-.12.55-.249.826-.38.536-.257 1.072-.53 1.608-.819a46.848 46.848 0 0 0-1.444-4.637c-1.009-2.7-2.17-5.39-3.703-7.83-.96-1.537-1.905-2.95-3.11-4.322-.217-.26-.507-.581-.998-1.122L41.33 28c-.158.085-.312.167-.467.248-1.383.763-2.314 1.593-2.87 2.25-1.082 1.19-1.837 2.673-2.331 4.2a14.81 14.81 0 0 0-.66 4.63l.003.035c.111 2.29.824 4.446 1.602 6.373.789 1.932 1.702 3.666 2.58 5.24 1.784 3.14 3.522 5.612 4.925 7.513a83.848 83.848 0 0 0 3.536 4.421c1.395-1.81 2.934-3.516 4.462-5.222M89.045 78.872a47.65 47.65 0 0 0-.689-.672c-.305-.305-.68-.602-.985-.908a30.73 30.73 0 0 0-3.081-2.5c-1.926-1.356-4.05-2.543-6.144-3.596a39.829 39.829 0 0 0-2.567-1.173c-1.03-.427-2.045-.773-2.416-.857a6.66 6.66 0 0 1-.641-.166 41.342 41.342 0 0 0-1.614 2.718 3.463 3.463 0 0 1-.764.898 2.232 2.232 0 0 1-1.15.505c-.86.083-1.62-.262-2.243-.66-.151-.1-.284-.216-.427-.323-.114.477-.296.941-.568 1.375A54.028 54.028 0 0 1 63 77.478a67.908 67.908 0 0 0 2.72 2.027c2.557 1.772 5.23 3.42 8.104 4.563 1.437.577 2.912 1.018 4.432 1.131 1.529.098 3.086-.008 4.566-.4 1.308-.333 2.57-.878 3.678-1.646a10.95 10.95 0 0 0 2.831-2.874l.425-.68a42.464 42.464 0 0 0-.71-.727" fill="#D2EAFC" mask="url(#b)"/><path d="M89.527 78.847l-.41.646c-.325-.344-.531-.584-.728-.764-1.346-1.283-2.638-2.434-4.144-3.508a44.396 44.396 0 0 0-7.616-4.422A53.387 53.387 0 0 0 72 68.996c.098-.152.2-.3.305-.451.395-.572.797-1.134 1.252-1.616.458-.492.94-.836 1.562-.903.08-.013.16-.017.245-.026.06.006.083 0 .167.015.142.021.312.064.47.11.324.093.648.194.974.315.65.23 1.295.495 1.93.768a40.041 40.041 0 0 1 3.724 1.878c2.387 1.422 4.727 2.957 6.768 4.836.525.46 1.002.91 1.24 1.46.237.54.208 1.174-.054 1.738-.077.133-.13.259-.22.402l-.282.445-.554.88zM50.95 44.715c-.14-.346-.424-1.354-.757-2.392a62.1 62.1 0 0 0-.885-2.611c-.77-2.17-1.821-4.311-2.977-6.312a52.773 52.773 0 0 0-2.085-3.301 21.31 21.31 0 0 0-.81-1.049c-.16-.19-.366-.437-.608-.732-.235-.27-.517-.568-.828-.896.448-.24.915-.492 1.406-.75.2-.109.408-.218.62-.33.211-.09.387-.2.613-.257.438-.112.9-.125 1.332.033.895.31 1.464 1.302 2.168 2.187.668.91 1.293 1.896 1.896 2.94a52.904 52.904 0 0 1 1.727 3.248 39.194 39.194 0 0 1 1.452 3.495c.417 1.194.821 2.43 1.022 3.641l.023.22c-.014.058 0 .098-.02.183-.029.147-.058.295-.106.43a2.071 2.071 0 0 1-.413.742c-.382.442-.9.792-1.418 1.128-.405.253-.814.495-1.23.72-.038-.115-.08-.226-.123-.337" fill="#A9DFFC" mask="url(#b)"/><path d="M43.91 99.418c-.14-.053-1.251-.575-2.43-1.178a45.045 45.045 0 0 1-2.884-1.599c-.04-.02-.696-.475-.997-.649a19.343 19.343 0 0 1-1.018-.602c-.509-.315-.997-.656-1.486-.984a45.564 45.564 0 0 1-3.2-2.51c-.193-.187-.555-.515-.963-.923-.395-.428-.864-.917-1.259-1.439-.428-.501-.75-1.043-1.03-1.432-.248-.414-.415-.709-.442-.776-.02-.04-.087-.174-.201-.24.074-.088.127-.175.154-.215 1.626-2.342 3.353-4.27 5.054-6.645 1.238-1.72 2.443-3.473 3.648-5.226.796 1.412 1.512 2.784 2.617 4.109 1.218 1.459 2.617 2.77 4.103 3.961 1.452 1.232 3.019 2.356 4.699 3.266 1.606.856 3.18 1.285 4.826 1.786-2.343 2.911-8.22 10.266-8.595 10.794a3.26 3.26 0 0 0-.401.61c-.074-.061-.161-.094-.194-.108" fill="#F5E3B1" mask="url(#b)"/><path d="M48.548 87.069c-.04-.021-.076-.047-.115-.069-2.887 3.85-6.555 6.955-10.433 9.803.328.204.833.554.869.571.468.288 1.7 1.004 2.885 1.6 1.178.602 2.289 1.124 2.43 1.177.033.014.12.047.194.107a3.26 3.26 0 0 1 .401-.609c.375-.528 6.252-7.882 8.595-10.793-1.647-.502-3.22-.93-4.826-1.787" fill="#F2D899" mask="url(#b)"/><path d="M43.044 57.718c1.252 1.7 2.55 3.34 3.883 4.919-.69.582-1.346 1.164-2.216 1.519-.047.02-.261.093-.16.348.12.294.347.187.394.16.08-.047.844-.321 1.633-.743.79-.408 1.573-.97 1.875-1.19.02-.028.482-.322.642-.503.188-.187.375-.388.556-.589.274-.3.535-.608.776-.936a13.654 13.654 0 0 0 1.446-2.322c.08-.161.228-.455.402-.797.04-.087.087-.18.134-.274.06-.12.107-.261.14-.382.054-.254.074-.495.074-.742 0-.482-.1-.957-.342-1.312-.254-.368-.629-.462-.682-.462-.054-.033-.241-.033-.328.08-.107-.12-.215-.234-.315-.347.054-.047.094-.087.114-.107 1.312-1.345 3.012-2.095 4.732-2.035.83.027 1.667.281 2.263.79.609.495.91 1.258.91 2.108-.007.856-.268 1.733-.556 2.616a20.586 20.586 0 0 1-1.01 2.563c-.81 1.713-1.553 3.3-2.885 4.671-.06.067-.342.335-.148.529.228.227.516-.087.576-.16.107-.121 1.084-1.105 1.955-2.33.89-1.217 1.62-2.676 1.88-3.245.027-.047.429-.863.543-1.245.14-.435.274-.87.388-1.311.187-.67.328-1.372.321-2.122 0-.14 0-.28-.02-.428a3.246 3.246 0 0 1 2.068.355c.63.334 1.125.83 1.54 1.425.388.569.636 1.231.683 1.927.053.696-.074 1.426-.295 2.155a31.373 31.373 0 0 1-1.928 4.236c-.763 1.399-1.452 2.69-2.59 3.841-.054.054-.294.274-.1.468.227.228.468-.033.522-.093.087-.1.917-.904 1.72-1.887.817-.97 1.526-2.155 1.78-2.61.027-.034.429-.69.563-.997.147-.341.294-.696.441-1.044.221-.522.442-1.05.616-1.62.114-.36.214-.736.275-1.117.227.054.455.094.542.114.14.04.937.227 1.74 1.03.395.402.783.93 1.058 1.573.274.636.401 1.378.395 2.155-.007 1.552-.583 3.125-1.198 4.39a35.123 35.123 0 0 1-1.614 2.87c-.053.1-1.144 1.693-1.64 2.382a41.29 41.29 0 0 1-1.733 2.336 70.404 70.404 0 0 1-2.845 3.352c-.555.61-1.158 1.252-1.707 1.9l-1.64 1.948a209.51 209.51 0 0 0-3.192 3.908c-.06.074-.128.16-.208.254-.167-.046-.395-.127-.676-.22-.495-.208-1.145-.435-1.794-.763-.656-.295-1.305-.663-1.867-.97-.556-.329-1.004-.616-1.259-.777-.047-.02-.73-.555-1.05-.756-.362-.22-.71-.489-1.065-.736-.529-.375-1.024-.796-1.546-1.191-1.145-.964-2.23-2.001-3.287-3.032-.415-.421-1.486-1.545-2.342-2.71-.456-.562-.817-1.15-1.125-1.586-.1-.16-.187-.308-.261-.428.261-.381.522-.756.783-1.138.817-1.144 1.647-2.261 2.457-3.44.395-.595.79-1.237 1.05-1.966.268-.737.355-1.513.362-2.236.013-.77-.08-1.485-.08-2.127 0-.663.067-1.319.194-1.968.24-1.305.69-2.59 1.265-3.888.007-.013.007-.027.013-.04" fill="#FFF" mask="url(#b)"/><path d="M38 31.469c1.375-.499 2.984-.357 4.368.887 3.407 3.062 5.984 7.624 6.9 12.11.203.997.086 1.885-.243 2.64.134-.072.27-.139.4-.2a34.63 34.63 0 0 0 2.39-1.299 46.806 46.806 0 0 0-1.634-4.588c-1.12-2.664-2.39-5.313-4.023-7.694-1.024-1.501-2.028-2.88-3.29-4.205-.228-.251-.53-.562-1.045-1.084L41.86 28c-.155.092-.306.18-.457.267-1.355.82-2.255 1.688-2.786 2.37a9.384 9.384 0 0 0-.616.832M86.641 82.81c.5-1.374.358-2.983-.886-4.366-3.064-3.407-7.627-5.982-12.114-6.898-.998-.203-1.886-.086-2.641.242.072-.133.14-.27.2-.4A34.614 34.614 0 0 1 72.5 69a46.835 46.835 0 0 1 4.59 1.633c2.664 1.119 5.313 2.389 7.695 4.022 1.502 1.023 2.88 2.027 4.207 3.29.25.227.561.53 1.083 1.043l.036-.036-.267.458c-.82 1.354-1.688 2.254-2.37 2.784a9.386 9.386 0 0 1-.833.616" fill="#A9DFFC" mask="url(#b)"/><path d="M60.035 55.645c-.15 3.448-2.402 7.881-4.828 10.256-.617.604.284.497.9-.106 2.716-2.657 5.101-6.332 5.267-10.15.038-.861-1.301-.86-1.339 0M65.247 60.47c-.934 3.173-2.626 6.506-5.037 8.768-.63.59.3.962.93.372a19.469 19.469 0 0 0 5.398-8.784c.244-.828-1.048-1.182-1.29-.356" fill="#DAE5F5" mask="url(#b)"/><path d="M72 69.565c.306.095.65.199.993.261.366.07 1.352.407 2.352.823a34.54 34.54 0 0 1 2.49 1.143c2.03 1.034 4.094 2.178 5.966 3.497a27.82 27.82 0 0 1 2.979 2.442c.297.297.66.583.959.88.354.34.894.876 1.59 1.585l.445-.397c-.507-.528-.781-.864-1.034-1.09-1.324-1.257-2.583-2.393-4.064-3.446-2.333-1.667-4.84-3.155-7.462-4.334A56.791 56.791 0 0 0 72.19 69l-.19.565zM51.795 46.389a8.847 8.847 0 0 0-.329-.984c-.147-.346-.434-1.353-.766-2.39a74.558 74.558 0 0 0-.877-2.616c-.763-2.173-1.824-4.313-2.976-6.32a55.585 55.585 0 0 0-2.077-3.315c-.248-.347-.537-.72-.81-1.05-.312-.393-.812-.99-1.522-1.714l-.438.406c.48.535.76.85.975 1.105 1.19 1.34 2.108 2.736 3.057 4.245 1.51 2.391 2.637 5.04 3.63 7.689a43.193 43.193 0 0 1 1.552 5.08l.581-.136z" fill="#0084BF" mask="url(#b)"/><path d="M66.623 72.53c.455.33.984.66 1.633.836a2.78 2.78 0 0 0 1.035.086c.37-.041.721-.192.997-.398.3-.217.66-.591.948-1.104.279-.526.583-1.035.946-1.661.369-.606.732-1.302 1.204-1.977.47-.665.974-1.39 1.6-1.892a2.096 2.096 0 0 1 1.057-.448c.094-.015.21-.027.297-.03.057 0 .149.013.248.034.194.04.398.098.598.16a23.23 23.23 0 0 1 2.287.885 35.765 35.765 0 0 1 3.348 1.691 53.282 53.282 0 0 1 4.64 3.051c.744.553 1.471 1.131 2.156 1.75.717.648 1.432 1.202 1.638 1.948.116.36.09.751-.02 1.14-.043.206-.159.362-.246.536-.104.184-.244.395-.364.591l-1.497 2.391c-.237.42-.537.73-.804 1.095-.285.343-.613.658-.93.972-.679.586-1.406 1.119-2.21 1.512-1.805.908-3.855 1.293-5.877 1.245-2.035-.009-3.947-.658-5.818-1.522-1.214-.566-2.544-1.228-3.713-1.92-1.364-.806-3.445-2.132-6.035-4.052l-.741.936c1.887 1.438 3.023 2.253 3.955 2.842 2.504 1.58 5.003 3 7.733 3.987.685.242 1.384.455 2.112.601.731.16 1.48.229 2.212.252a14.48 14.48 0 0 0 4.448-.554c2.31-.684 4.492-2.041 5.965-4.02.411-.484.677-.98.998-1.47l.934-1.475.468-.738c.157-.282.37-.617.443-.942.206-.652.18-1.468-.136-2.121-.302-.664-.794-1.145-1.239-1.547-.422-.374-.863-.793-1.322-1.168a35.692 35.692 0 0 0-2.84-2.119c-1.932-1.318-3.986-2.522-6.132-3.475a31.993 31.993 0 0 0-2.051-.846c-.35-.13-.704-.252-1.071-.363a8.306 8.306 0 0 0-.571-.153c-.093-.025-.218-.04-.325-.06a1.822 1.822 0 0 0-.415-.007c-.4.036-.871.14-1.278.366-.41.219-.724.512-1 .8-.545.585-.97 1.196-1.39 1.807-.407.617-.768 1.264-1.153 1.892l-.568.946c-.206.328-.342.611-.52.85-.37.493-.782.744-1.292.678-.53-.054-1.097-.37-1.61-.76l-.732.943zM47.684 61.752c-.858-.994-1.815-2.112-2.76-3.166-1.006-1.125-3.619-4.52-5.794-8.383-1.09-1.927-2.073-3.962-2.766-5.802-.703-1.838-1.092-3.48-1.21-4.54-.271-2.244.083-4.62.954-6.73.447-1.053 1.037-2.048 1.791-2.906.758-.857 1.662-1.57 2.64-2.155l3.17-1.653c.139-.077.252-.124.363-.172.111-.051.22-.11.35-.128.253-.067.502-.072.741-.054.478.05.913.295 1.286.676 1.493 1.723 2.763 3.753 3.856 5.81a35.89 35.89 0 0 1 2.988 7.262c.168.614.345 1.28.394 1.834.011.08.001.105.005.13-.007.052-.027.14-.04.206a2.22 2.22 0 0 1-.122.383 1.88 1.88 0 0 1-.442.631c-.399.394-.949.738-1.498 1.064-.279.162-.563.32-.85.476l-.881.419-2.408 1.176c-.464.237-.938.551-1.295 1.044a2.37 2.37 0 0 0-.388.833c-.07.308-.075.59-.055.866.127 1.31.984 2.5 2.04 3.693a377.503 377.503 0 0 0 3.728 3.968l.889-.796-2.47-2.692c-.661-.73-1.199-1.296-1.618-1.796-.563-.674-1.078-1.402-1.273-2.128-.213-.751.008-1.282.667-1.703.159-.1.33-.19.513-.27l.61-.303 1.228-.61 1.223-.606c.4-.217.792-.444 1.183-.689a9.868 9.868 0 0 0 1.161-.825c.375-.313.762-.73.986-1.259.115-.26.178-.523.225-.77.024-.078.047-.354.031-.48a3.668 3.668 0 0 0-.047-.392 13.511 13.511 0 0 0-.316-1.378 35.484 35.484 0 0 0-1.931-5.2 51.861 51.861 0 0 0-2.067-3.931c-.737-1.276-1.563-2.553-2.473-3.713-.428-.574-.94-1.286-1.772-1.699a2.867 2.867 0 0 0-1.339-.293c-.454.021-.872.09-1.287.296-.226.094-.37.177-.537.261l-.491.254-.983.507-.983.506c-.328.177-.655.316-.985.55a11.04 11.04 0 0 0-3.361 3.2 12.776 12.776 0 0 0-1.846 4.226c-.346 1.5-.505 3.023-.37 4.575.14 1.55.554 3.008 1.045 4.421 1.256 3.533 3.102 6.81 5.101 9.93 2.026 3.107 4.257 6.04 6.57 8.785l.92-.76z" fill="#0084BF" mask="url(#b)"/><path d="M66.065 59.635c.144.039.936.224 1.739 1.03.394.397.786.93 1.057 1.572.278.637.406 1.379.4 2.154-.006 1.55-.584 3.123-1.201 4.391a33.642 33.642 0 0 1-1.613 2.869 86.571 86.571 0 0 1-1.641 2.385 45.191 45.191 0 0 1-1.73 2.335 69.716 69.716 0 0 1-2.844 3.346c-.558.613-1.159 1.254-1.707 1.906l-1.644 1.945c-1.085 1.3-2.15 2.604-3.19 3.91-1.699 2.1-8.77 10.936-9.183 11.523-.136.156-.7.9-.44 1.086.22.16.72-.531.847-.69 2.613-3.36 5.292-6.12 8.087-9.467l4-4.802c1.347-1.606 2.641-3.208 4.061-4.744 2.84-3.11 5.49-6.476 7.425-10.258 1.015-1.958 1.734-4.09 1.506-6.252a5.736 5.736 0 0 0-1.18-2.97c-.657-.848-1.565-1.559-2.677-1.831a2.156 2.156 0 0 0-.642-.07c-.257.022-.478.1-.466.232.016.164.236.227.465.277l.57.123" fill="#0084BF" mask="url(#b)"/><path d="M59.594 68.939c.088-.104.92-.906 1.725-1.885.814-.973 1.522-2.154 1.78-2.61.025-.038.428-.69.558-.997l.444-1.045c.218-.52.44-1.054.614-1.62.205-.644.361-1.33.374-2.045a4.413 4.413 0 0 0-.455-2.08 5.053 5.053 0 0 0-.79-1.157 4.585 4.585 0 0 0-1.614-1.14c-1.266-.55-2.543-.312-2.67-.29-.086.004-.462.086-.37.397.078.259.37.173.442.163.755-.141 1.51.02 2.134.352.63.329 1.126.828 1.54 1.422.389.572.636 1.232.681 1.925.053.697-.075 1.43-.293 2.155a31.979 31.979 0 0 1-1.927 4.24c-.766 1.396-1.454 2.69-2.594 3.839-.055.053-.29.275-.1.468.228.228.47-.031.521-.092M45.42 65.273c.083-.048.847-.326 1.63-.746.791-.404 1.576-.971 1.876-1.193.022-.02.484-.317.643-.497.19-.191.377-.388.556-.591.275-.299.536-.611.775-.936a13.69 13.69 0 0 0 1.45-2.323c.08-.163.226-.452.399-.8l.135-.268a1.92 1.92 0 0 0 .139-.386c.058-.25.078-.496.077-.738-.003-.481-.104-.96-.345-1.315a1.109 1.109 0 0 0-.68-.461c-.08-.046-.424-.027-.365.289.047.275.209.24.239.261.393.053.476.644.4 1.091a2.326 2.326 0 0 1-.194.657c-.056.117-.257.38-.393.62-.559.932-1.093 1.876-1.719 2.743-.666.844-1.432 1.576-2.246 2.237-.845.683-1.575 1.42-2.612 1.842-.048.02-.259.096-.158.348.118.299.345.194.393.166M53.401 87.994a16.66 16.66 0 0 1-.932-.306c-.492-.205-1.145-.435-1.79-.76-.657-.293-1.307-.664-1.87-.97-.552-.327-1.003-.617-1.255-.776-.046-.022-.73-.556-1.051-.755-.366-.225-.709-.49-1.065-.736-.532-.375-1.029-.798-1.545-1.195-1.149-.962-2.233-1.996-3.29-3.026-.417-.424-1.489-1.55-2.343-2.712-.451-.564-.818-1.153-1.123-1.59a18.603 18.603 0 0 1-.504-.844c-.04-.083-.237-.439-.52-.287-.239.13-.032.461.014.54.97 1.66 1.735 3.257 3.012 4.796 1.217 1.46 2.615 2.772 4.099 3.961 1.458 1.231 3.02 2.358 4.701 3.264 1.767.946 3.494 1.366 5.327 1.945.087.028.457.157.53-.105.084-.31-.305-.422-.395-.444" fill="#0084BF" mask="url(#b)"/><path d="M55.493 65.115c.102-.125 1.085-1.104 1.954-2.334.891-1.214 1.62-2.672 1.877-3.243.03-.044.429-.864.547-1.247.141-.43.27-.868.39-1.307.184-.668.324-1.375.32-2.12.008-.846-.237-1.785-.837-2.486-.593-.698-1.419-1.102-2.233-1.266a5.544 5.544 0 0 0-1.647-.087c-.717.073-1.512.327-2.193.696-1.38.732-2.322 1.792-2.447 1.893-.073.063-.373.372-.132.586.202.181.45-.107.514-.169 1.317-1.342 3.015-2.092 4.737-2.034.83.03 1.669.279 2.264.788.607.494.905 1.26.91 2.111-.01.854-.273 1.732-.556 2.615-.285.876-.62 1.732-1.01 2.56-.814 1.715-1.554 3.3-2.888 4.676-.064.065-.34.33-.148.524.226.227.516-.083.578-.156M44.327 99.383c-.136-.05-1.248-.571-2.428-1.177a43.966 43.966 0 0 1-2.884-1.597c-.043-.02-.697-.473-.996-.646-.347-.19-.685-.395-1.02-.608-.507-.312-.995-.65-1.489-.983a45.387 45.387 0 0 1-3.193-2.51c-.197-.184-.557-.512-.97-.923-.394-.426-.863-.918-1.257-1.44-.426-.497-.747-1.04-1.03-1.431-.248-.414-.412-.71-.444-.775-.035-.075-.207-.401-.493-.256-.243.122-.058.43-.016.502.853 1.534 1.561 3.013 2.808 4.372 1.185 1.285 2.57 2.376 4.008 3.347a33.574 33.574 0 0 0 4.44 2.717c1.615.813 3.172 1.203 4.757 1.934.075.035.393.192.503-.056.13-.294-.216-.44-.296-.47M42.262 57.59l-.583 1.379c-.307.752-.696 1.747-.953 2.842-.13.547-.224 1.117-.268 1.68-.047.567-.016 1.119-.02 1.582.006.957-.1 1.71-.22 2.1-.01.035-.097.338-.258.672a10.15 10.15 0 0 1-.525.95c-.317.536-.69 1.071-1.064 1.608l-1.708 2.424c-1.312 1.858-2.619 3.721-3.845 5.59-.992 1.511-5.252 7.78-5.54 8.157-.086.111-.446.61-.184.794.222.157.544-.323.62-.434 1.628-2.346 3.35-4.27 5.054-6.647 1.624-2.264 3.202-4.58 4.788-6.883.816-1.147 1.644-2.263 2.451-3.444.398-.593.79-1.235 1.055-1.966.263-.736.35-1.51.357-2.235.019-.767-.076-1.487-.074-2.126a10.48 10.48 0 0 1 .188-1.969c.246-1.306.694-2.587 1.265-3.89.053-.124.295-.647.046-.755-.295-.128-.533.44-.582.572" fill="#0084BF" mask="url(#b)"/><mask id="d" fill="#fff"><use xlink:href="#c"/></mask><path d="M120.429 28.99l-.04-.789-.12-.774c-.081-.513-.148-1.038-.242-1.55-.281-1.01-.462-2.048-.864-3.018-1.365-3.968-3.909-7.491-7.122-10.166-1.626-1.32-3.441-2.398-5.342-3.267-.482-.202-.977-.364-1.466-.553l-.73-.27-.762-.201c-.503-.128-1.005-.27-1.514-.384l-1.553-.243c-.508-.1-1.03-.121-1.553-.141-.522-.02-1.044-.067-1.566-.067-1.038.074-2.089.047-3.113.255-2.069.243-4.063.917-5.971 1.725-4.814 2.136-8.642 5.895-11.039 10.388-1.212 2.25-1.968 4.736-2.343 7.282l-.147.964-.047.97c-.02.647-.093 1.3-.06 1.953.04 1.301.194 2.615.468 3.914.207.964.475 2.055.937 3.383.415 1.152.968 2.5 1.88 3.997.245.4.193.917-.12 1.266-.797.892-2.265 2.558-2.958 3.508-.482.68-.964 1.368-1.419 2.061-.455.7-.95 1.409-1.285 2.075-.215.432-.362.896-.335 1.22.027.303.16.471.55.64.373.148.869.208 1.364.215.248.007.502-.007.757-.027 0 0 4.03-.027 5.636.007 1.587.027 3.583.049 5.162.049 3.36.007 6.078.167 9.459.126.629-.007.917 0 2.269.013l.509.04c1.265-.006 2.57-.086 3.829-.336a23.695 23.695 0 0 0 3.742-.963 22.657 22.657 0 0 0 6.788-3.82c4.076-3.308 6.955-8.104 7.966-13.238.14-.505.16-1.03.248-1.55.073-.518.154-1.036.154-1.556l.073-1.57-.08-1.569z" fill="#F2D899" mask="url(#d)"/><path d="M107.636 22.533a2.59 2.59 0 0 0-3.636.49l-7.112 9.366-4.441-4.577a2.59 2.59 0 0 0-3.668-.044 2.63 2.63 0 0 0-.044 3.692l6.343 6.536c.52.536 1.217.79 1.91.776a2.582 2.582 0 0 0 2.34-.998l8.794-11.582a2.63 2.63 0 0 0-.486-3.659" fill="#FFF" mask="url(#d)"/></g></g></svg>